<svg id="Layer_1" data-name="Layer 1" xmlns="http://www.w3.org/2000/svg" viewBox="0 0 640.25 854.33"><path d="M961.12,860.16V965.69l-79.33-79.35L801,967V860.16H762.59c-22.66,0-45.33.12-68,0C667,859.94,641.05,834,641,806.35q-.1-178,0-356,0-141,0-282c0-29.76,25.82-55.42,55.57-55.42,175.49,0,351,.26,526.47-.26,30.26-.09,54.4,24.75,57.41,47.35a60.46,60.46,0,0,1,.52,8q0,212.48,0,425c0,70.5-.46,141,.23,211.5.28,28.65-28.51,56.25-56.47,56-86.15-.85-172.31-.31-258.47-.31Zm-160-213.7h426.7V166.72H801.14Zm-.09,107.37H961.22v53h4.84q116.2,0,232.43,0c17.16,0,29.15-12,29.17-29.28q.06-36,0-72c0-1.77-.16-3.53-.24-5.25H694.75a8.71,8.71,0,0,0-.42,1.73c0,26.16-.34,52.32.09,78.47.23,14.23,13.51,26.24,27.68,26.26q36.75,0,73.48,0h5.47Z" transform="translate(-640.98 -112.71)"/><path d="M854.53,326.74h52.94v52.83H854.53Z" transform="translate(-640.98 -112.71)"/><path d="M854.64,433.28h52.74v53.11H854.64Z" transform="translate(-640.98 -112.71)"/><path d="M854.57,220.05h52.94V272.8H854.57Z" transform="translate(-640.98 -112.71)"/><path d="M907.4,593.06H854.51V540.28H907.4Z" transform="translate(-640.98 -112.71)"/></svg>